<?xml version="1.0" standalone="no"?>
<!DOCTYPE svg PUBLIC "-//W3C//DTD SVG 20010904//EN"
 "http://www.w3.org/TR/2001/REC-SVG-20010904/DTD/svg10.dtd">
<svg version="1.0" xmlns="http://www.w3.org/2000/svg"
 width="16.000000pt" height="16.000000pt" viewBox="0 0 16.000000 16.000000"
 preserveAspectRatio="xMidYMid meet">
<metadata>
Created by potrace 1.11, written by Peter Selinger 2001-2013
</metadata>
<g transform="translate(0.000000,16.000000) scale(0.003200,-0.003200)"
fill="#000000" stroke="none">
<path d="M2755 4790 c-229 -20 -559 -91 -722 -153 -201 -78 -447 -221 -593
-345 l-34 -29 49 -56 c28 -31 119 -128 204 -217 84 -88 149 -160 143 -160 -5
0 -101 90 -213 200 -112 110 -208 200 -214 200 -14 0 -115 -102 -115 -117 0
-17 250 -293 266 -293 8 0 14 -8 14 -17 0 -17 169 -224 188 -231 10 -3 172
137 172 150 0 4 6 8 13 8 6 0 45 27 86 60 80 66 205 150 222 150 7 0 9 -10 6
-22 -14 -57 -29 -333 -25 -452 5 -134 23 -206 50 -206 7 0 45 28 83 63 227
200 680 547 716 547 11 0 16 -26 24 -115 10 -110 42 -302 70 -416 14 -57 25
-115 25 -130 0 -29 17 -49 41 -49 17 0 413 207 462 242 16 11 31 17 35 13 4
-4 9 -136 12 -293 3 -158 9 -293 13 -299 13 -20 59 -16 262 26 105 22 193 37
196 33 8 -9 -15 -239 -44 -444 -30 -215 -25 -229 64 -188 54 24 173 27 225 5
97 -40 148 -116 142 -211 -3 -47 -4 -49 -34 -52 -37 -4 -53 -19 -94 -93 l-30
-54 6 81 c8 93 2 126 -26 154 -37 37 7 22 50 -17 38 -34 42 -35 58 -20 15 16
15 19 -4 44 -42 56 -69 68 -154 68 -71 0 -82 -3 -121 -30 -71 -50 -84 -95 -16
-55 44 26 95 41 102 30 3 -4 -2 -11 -11 -14 -25 -9 -90 -162 -115 -271 l-24
-100 -5 158 -5 159 -33 29 c-38 34 -60 36 -95 9 -31 -25 -42 -73 -57 -260 -15
-185 -14 -180 -54 -180 -58 0 -65 -20 -73 -195 -4 -95 -2 -119 16 -170 20 -55
20 -61 5 -70 -9 -5 -57 -37 -107 -70 -110 -71 -226 -123 -385 -171 -183 -55
-231 -63 -485 -75 -369 -18 -668 3 -955 67 -134 29 -475 140 -554 180 -71 35
-262 180 -346 262 -138 134 -179 209 -240 436 -24 90 -27 117 -26 256 1 231 8
255 158 513 68 118 134 233 145 255 12 23 51 144 87 269 74 256 107 328 242
531 45 69 82 130 82 136 0 6 -60 71 -134 145 -92 92 -139 132 -150 128 -37
-14 -238 -277 -353 -462 -73 -119 -83 -137 -133 -260 -18 -44 -39 -87 -47 -95
-11 -12 -13 -8 -13 30 -1 72 -12 164 -20 174 -11 11 -17 -38 -31 -254 -6 -96
-12 -176 -12 -177 -1 0 -28 -4 -61 -8 l-59 -8 7 69 c15 148 39 292 59 354 21
63 23 65 55 63 42 -1 37 18 -8 31 -29 9 -35 7 -56 -17 -22 -26 -42 -96 -64
-234 -6 -40 -15 -73 -20 -73 -5 0 -11 39 -15 88 -9 116 -21 159 -45 167 -67
21 -100 -47 -110 -227 -9 -166 -13 -171 -40 -50 -12 54 -51 99 -74 85 -7 -5
-5 -9 6 -11 20 -4 21 -8 38 -142 16 -127 18 -182 7 -197 -17 -23 0 -44 30 -37
16 4 33 10 38 14 35 26 243 60 367 60 57 0 99 4 103 11 10 15 -24 49 -50 49
-12 0 -24 2 -27 5 -15 15 113 386 144 420 23 25 51 11 56 -29 4 -28 -50 -329
-74 -411 -10 -35 -30 -67 -66 -106 -45 -47 -64 -60 -123 -79 -57 -19 -80 -34
-127 -80 -41 -41 -58 -67 -64 -94 -11 -64 10 -65 50 -2 43 68 97 108 182 136
59 20 70 28 151 121 59 67 94 99 109 99 21 0 54 -28 54 -47 0 -5 -24 -36 -53
-69 -30 -32 -76 -97 -103 -144 -26 -47 -76 -114 -110 -150 l-61 -66 -6 -94
c-22 -311 -29 -500 -23 -609 5 -111 9 -132 36 -190 34 -72 102 -184 132 -217
18 -21 18 -22 -60 -169 -44 -82 -83 -150 -88 -152 -5 -2 -17 9 -26 24 -9 16
-47 66 -84 113 -71 90 -184 255 -226 330 -24 43 -25 49 -17 145 4 55 13 204
20 330 6 127 13 258 16 292 4 58 1 70 -40 160 -70 151 -89 237 -103 476 -5 76
-10 102 -25 120 -20 22 -20 21 -15 -168 4 -219 19 -303 73 -415 19 -41 37 -91
38 -110 7 -94 6 -207 -4 -320 -13 -159 -14 -412 0 -470 31 -137 214 -409 338
-503 l49 -38 -20 -50 -21 -50 24 -25 c13 -14 89 -75 169 -136 80 -61 170 -132
200 -158 30 -26 93 -77 140 -114 82 -66 181 -166 163 -166 -5 0 -13 4 -19 8
-17 16 -84 54 -84 48 0 -21 338 -191 489 -246 302 -110 680 -164 996 -141 355
26 636 102 950 256 624 306 1101 874 1290 1534 28 102 32 126 28 198 -6 91 2
147 18 122 5 -7 9 -27 10 -44 1 -26 2 -25 9 10 15 79 20 140 11 126 -7 -11
-11 -4 -16 25 -3 21 -12 68 -19 104 -8 36 -14 74 -14 85 -1 38 -33 240 -52
326 -72 324 -188 655 -304 874 -108 204 -333 504 -487 650 -85 80 -273 232
-357 288 -248 164 -642 256 -967 227z m1380 -1400 c315 -359 594 -706 724
-898 24 -35 41 -66 38 -68 -4 -4 -73 75 -437 500 -220 257 -486 591 -593 746
-37 53 -36 52 38 -25 42 -44 146 -159 230 -255z m-3755 -195 l0 -213 -31 -11
c-18 -6 -32 -11 -33 -11 -2 0 0 314 2 355 2 44 37 110 52 100 6 -4 10 -90 10
-220z m378 -780 c1 -1 -4 -18 -13 -37 -8 -20 -24 -91 -36 -159 -35 -205 -17
-350 71 -549 22 -50 56 -116 75 -146 19 -30 35 -56 35 -59 0 -2 -14 -12 -30
-20 -30 -15 -50 -13 -50 5 0 5 -36 66 -81 137 l-80 128 6 59 c17 162 25 299
25 472 0 105 3 193 6 197 5 5 57 -15 72 -28z m3608 -380 c20 -31 15 -85 -22
-261 -14 -65 -31 -150 -38 -189 l-12 -70 -55 -1 c-30 0 -57 1 -60 3 -7 3 63
323 86 389 8 25 15 57 15 73 0 32 34 81 55 81 8 0 22 -11 31 -25z m-277 -9 c8
-10 11 -92 11 -280 -1 -146 2 -270 5 -276 3 -5 30 -10 58 -10 98 -1 214 -28
298 -70 120 -60 155 -51 79 21 -45 43 -46 46 -25 69 8 9 53 77 98 151 83 134
102 152 137 130 23 -15 18 -81 -11 -136 -67 -130 -110 -208 -143 -262 -20 -33
-56 -111 -80 -175 -62 -161 -75 -184 -150 -258 -53 -52 -70 -77 -88 -128 -20
-57 -33 -73 -103 -136 -112 -100 -166 -143 -275 -219 -85 -58 -280 -171 -285
-165 -1 2 8 55 21 118 13 63 24 134 24 157 0 64 6 73 43 62 56 -16 95 -11 111
14 17 25 176 418 176 433 0 6 -9 28 -19 50 -10 21 -27 64 -37 94 -9 30 -23 64
-30 75 -10 16 -11 37 -2 95 5 41 8 103 4 137 -5 62 0 78 26 68 21 -8 58 -111
58 -164 0 -47 2 -51 60 -101 73 -63 100 -105 100 -157 0 -21 6 -48 14 -58 13
-18 14 -18 26 5 33 61 -16 173 -108 247 -39 31 -40 34 -47 110 -3 43 -8 182
-10 308 -2 196 0 233 13 248 18 21 36 22 51 3z m491 -106 c28 -52 -126 -430
-175 -430 -42 0 -47 12 -25 75 11 32 20 64 20 72 0 13 55 156 99 256 16 38 25
47 45 47 15 0 30 -8 36 -20z m-3638 -547 c32 -21 86 -60 121 -87 96 -76 188
-133 318 -198 65 -32 119 -64 119 -71 0 -6 7 -84 16 -172 19 -195 51 -645 45
-645 -2 0 -48 21 -102 46 -94 45 -100 50 -148 118 -84 121 -300 318 -541 492
-66 48 -119 90 -118 93 2 3 24 44 49 91 26 47 75 149 110 228 35 78 66 142 68
142 3 0 31 -17 63 -37z m3708 -118 c0 -10 -112 -185 -123 -192 -6 -4 -8 0 -4
11 4 9 14 45 22 79 25 100 30 107 70 107 19 0 35 -2 35 -5z m-710 -176 c0 -3
-22 -62 -49 -130 -26 -68 -60 -155 -75 -194 -14 -38 -30 -76 -34 -83 -14 -21
-102 3 -133 37 -29 32 -131 69 -289 105 -58 13 -105 27 -105 31 0 4 38 18 85
31 202 53 453 176 530 258 l24 27 23 -38 c13 -21 23 -41 23 -44z m-2055 -177
c53 -15 60 -20 69 -51 15 -53 96 -134 168 -167 58 -26 72 -29 178 -29 104 0
121 3 183 29 41 17 90 49 122 78 73 66 87 62 102 -27 23 -137 53 -442 57 -572
l4 -132 -75 -7 c-113 -10 -435 2 -543 21 -52 9 -111 18 -130 21 -94 12 -140
27 -145 48 -2 12 -9 104 -15 206 -12 203 -34 408 -56 513 -8 38 -14 73 -14 78
0 13 25 10 95 -9z m445 -81 c63 -6 139 -11 168 -11 59 0 65 -10 23 -39 -55
-40 -115 -61 -171 -61 -67 0 -176 23 -222 45 -32 16 -118 93 -118 105 0 3 46
-2 103 -11 56 -10 154 -22 217 -28z m972 -54 c92 -25 197 -55 233 -67 l65 -22
0 -42 c0 -54 -24 -195 -53 -311 l-23 -90 -104 -43 c-93 -39 -179 -56 -195 -41
-2 3 -11 51 -20 108 -20 134 -32 187 -55 238 -24 54 -45 58 -36 8 14 -73 46
-329 46 -365 0 -36 -2 -38 -42 -48 -24 -6 -46 -8 -50 -4 -4 4 -12 90 -18 192
-12 225 -26 341 -47 400 -9 25 -17 54 -18 65 -1 11 -5 30 -9 42 -5 16 -2 23
11 26 46 13 160 -4 315 -46z m-384 25 c6 -18 -15 -14 -22 4 -4 10 -1 14 6 12
6 -2 14 -10 16 -16z m66 -571 c4 -73 10 -140 13 -148 5 -13 -2 -15 -46 -11
-31 3 -47 2 -39 -3 20 -13 -29 -11 -53 1 -16 9 -19 22 -19 73 0 40 -7 77 -20
106 -16 35 -17 42 -5 37 12 -4 15 8 16 72 0 42 5 86 10 97 9 19 9 19 5 -1 -2
-12 1 -28 6 -35 8 -11 9 -10 4 3 -3 10 -1 20 4 23 6 4 10 3 11 -2 0 -4 2 -18
5 -30 3 -17 0 -21 -16 -18 -11 2 -18 0 -15 -5 8 -13 40 -5 41 11 1 8 2 18 3
23 0 6 7 2 14 -9 16 -21 39 -12 30 12 -4 10 -2 14 4 10 6 -4 10 3 9 16 -1 12
0 26 3 32 9 18 28 -118 35 -254z m-1340 224 c-4 -8 -2 -15 4 -15 6 0 13 6 15
13 3 7 6 4 6 -6 1 -10 6 -15 11 -12 6 3 10 2 10 -3 0 -16 -13 -22 -26 -11 -9
8 -12 6 -9 -8 2 -10 4 -20 5 -23 1 -3 2 -9 1 -13 -1 -5 3 -6 9 -2 6 3 8 10 5
15 -6 10 20 32 28 23 12 -11 8 -25 -5 -17 -7 5 -8 3 -3 -5 5 -9 10 -10 18 -2
7 7 6 15 -2 25 -7 8 -11 25 -8 38 4 20 4 20 6 -4 0 -17 7 -28 16 -28 8 0 12
-6 9 -13 -3 -8 2 -14 10 -14 8 0 13 3 11 7 -2 3 0 12 6 20 7 12 9 11 9 -6 0
-21 -22 -48 -32 -39 -2 3 -5 -2 -5 -10 0 -13 2 -13 17 0 16 15 30 11 30 -7 0
-5 -6 -6 -12 -2 -7 4 -6 -1 4 -12 12 -14 17 -45 21 -116 2 -54 3 -98 1 -98 -2
0 -39 11 -83 25 l-79 25 -1 135 c-2 122 1 155 14 155 3 0 2 -7 -1 -15z m1245
1 c7 -8 8 -17 3 -20 -6 -3 -12 3 -15 14 -6 24 -4 25 12 6z m40 5 c10 -6 10
-10 1 -16 -6 -4 -9 -13 -6 -21 3 -8 1 -14 -4 -14 -6 0 -10 3 -11 8 0 4 -2 17
-5 30 -4 23 2 27 25 13z m-72 -407 c-3 -3 -12 -4 -19 -1 -8 3 -5 6 6 6 11 1
17 -2 13 -5z"/>
<path d="M1270 603 c0 -3 18 -28 40 -54 22 -27 58 -79 79 -116 43 -75 61 -89
61 -46 0 40 -51 124 -102 168 -47 40 -78 60 -78 48z"/>
<path d="M1514 3703 c-4 -20 -4 -99 -1 -175 3 -76 3 -138 1 -138 -2 0 -24 16
-50 35 -48 37 -64 43 -64 23 0 -28 395 -394 436 -404 17 -4 34 1 59 20 58 45
41 83 -20 46 l-35 -22 -118 110 c-64 60 -135 125 -157 145 -27 24 -35 37 -24
37 16 0 169 160 169 176 0 10 -172 184 -182 184 -4 0 -10 -16 -14 -37z"/>
<path d="M137 3193 c-11 -10 -8 -71 3 -78 6 -4 10 12 10 39 0 47 -2 51 -13 39z"/>
<path d="M2947 3064 c-111 -17 -192 -39 -281 -77 -73 -31 -150 -77 -141 -85 2
-3 42 9 87 26 211 80 500 113 808 93 80 -5 147 -7 149 -5 8 8 -75 36 -146 50
-95 18 -356 17 -476 -2z"/>
<path d="M1540 2941 c-52 -28 -72 -55 -77 -105 -7 -58 14 -91 67 -107 33 -10
47 -9 84 5 102 39 117 164 26 211 -37 19 -57 18 -100 -4z"/>
<path d="M2990 2799 c-92 -37 -135 -115 -109 -197 2 -8 -21 -23 -62 -41 -124
-53 -231 -123 -321 -211 -49 -47 -88 -91 -88 -98 0 -7 30 13 66 44 160 135
385 243 630 300 109 26 136 28 319 29 156 0 218 -4 284 -18 46 -10 86 -16 89
-13 11 12 -127 66 -208 82 -64 13 -117 15 -223 12 -134 -5 -139 -5 -147 16
-10 25 -43 56 -90 85 -37 22 -98 27 -140 10z"/>
<path d="M4983 2320 c0 -25 2 -35 4 -22 2 12 2 32 0 45 -2 12 -4 2 -4 -23z"/>
<path d="M4941 2014 c0 -11 3 -14 6 -6 3 7 2 16 -1 19 -3 4 -6 -2 -5 -13z"/>
<path d="M4931 1974 c0 -11 3 -14 6 -6 3 7 2 16 -1 19 -3 4 -6 -2 -5 -13z"/>
<path d="M2268 1844 c-4 -5 -12 -40 -19 -77 -12 -64 -21 -79 -34 -57 -4 6 -30
22 -58 36 -48 25 -58 26 -152 21 -110 -5 -161 -19 -280 -79 -125 -62 -148 -93
-102 -136 31 -29 74 -46 201 -77 120 -29 367 -50 398 -34 28 15 33 11 53 -46
19 -56 77 -136 90 -123 4 4 -7 46 -23 95 -46 132 -53 174 -61 338 -3 83 -9
145 -13 139z"/>
<path d="M910 585 c13 -14 26 -25 28 -25 3 0 -5 11 -18 25 -13 14 -26 25 -28
25 -3 0 5 -11 18 -25z"/>
<path d="M1010 506 c0 -2 8 -10 18 -17 15 -13 16 -12 3 4 -13 16 -21 21 -21
13z"/>
</g>
</svg>
